inDegrees=no
num_controls=7
num_derivatives=13
num_iterations=117
num_multipliers=7
num_parameters=0
num_slacks=7
num_states=26
objective=5.551769
objective_accelerations=0.241605
objective_balance=0.027575
objective_effort=0.361706
objective_height=4.897471
objective_ligament=0.023411
solver_duration=1002.325159
status=Solve_Succeeded
success=true
DataType=double
version=3
OpenSimVersion=4.4-2022-07-23-0e9fedc
endheader
time	/jointset/ground_pelvis/pelvis_tilt/value	/jointset/ground_pelvis/pelvis_tx/value	/jointset/ground_pelvis/pelvis_ty/value	/jointset/hip_r/hip_flexion_r/value	/jointset/hip_r/hip_adduction_r/value	/jointset/hip_r/hip_rotation_r/value	/jointset/back/lumbar_extension/value	/jointset/patellofemoral_r/patellar_flexion_r/value	/jointset/knee_r/knee_flexion_r/value	/jointset/knee_r/knee_adduction_r/value	/jointset/knee_r/knee_rotation_r/value	/jointset/ankle_r/ankle_angle_r/value	/jointset/subtalar_r/subtalar_angle_r/value	/jointset/ground_pelvis/pelvis_tilt/speed	/jointset/ground_pelvis/pelvis_tx/speed	/jointset/ground_pelvis/pelvis_ty/speed	/jointset/hip_r/hip_flexion_r/speed	/jointset/hip_r/hip_adduction_r/speed	/jointset/hip_r/hip_rotation_r/speed	/jointset/back/lumbar_extension/speed	/jointset/patellofemoral_r/patellar_flexion_r/speed	/jointset/knee_r/knee_flexion_r/speed	/jointset/knee_r/knee_adduction_r/speed	/jointset/knee_r/knee_rotation_r/speed	/jointset/ankle_r/ankle_angle_r/speed	/jointset/subtalar_r/subtalar_angle_r/speed	/forceset/tau_hip_flexion_r	/forceset/tau_hip_adduction_r	/forceset/tau_hip_rotation_r	/forceset/tau_knee_flexion_r	/forceset/tau_ankle_angle_r	/forceset/tau_subtalar_angle_r	/forceset/tau_lumbar_extension	lambda_cid13_p0	lambda_cid14_p0	lambda_cid14_p1	lambda_cid14_p2	lambda_cid14_p3	lambda_cid14_p4	lambda_cid14_p5	/jointset/ground_pelvis/pelvis_tilt/accel	/jointset/ground_pelvis/pelvis_tx/accel	/jointset/ground_pelvis/pelvis_ty/accel	/jointset/hip_r/hip_flexion_r/accel	/jointset/hip_r/hip_adduction_r/accel	/jointset/hip_r/hip_rotation_r/accel	/jointset/back/lumbar_extension/accel	/jointset/patellofemoral_r/patellar_flexion_r/accel	/jointset/knee_r/knee_flexion_r/accel	/jointset/knee_r/knee_adduction_r/accel	/jointset/knee_r/knee_rotation_r/accel	/jointset/ankle_r/ankle_angle_r/accel	/jointset/subtalar_r/subtalar_angle_r/accel	gamma_cid13_p0	gamma_cid14_p0	gamma_cid14_p1	gamma_cid14_p2	gamma_cid14_p3	gamma_cid14_p4	gamma_cid14_p5
1	-0.02832248344042048	0.09128412364376991	0.8242045086082165	0.7124329459455307	-0.2468490124480964	-0.07225334991891222	-0.4361048129453846	0.9386736890374723	0.9386736890374723	0.0467385233989915	0.1744752250305023	0.4362899624734555	0.08577256971152043	-0.003000358264094785	0.007328193281187563	0.01177565656735699	-0.03839026180298662	0.001738538052305053	-0.01251030445798378	0.01938998458909014	-0.05213387944762322	-0.0521338794476232	0.0008746226812527411	-0.000102325360550057	-0.01254563353141214	-0.001237593005826204	-0.09658468292854237	0.02016037245808465	0.01620140073528476	-0.4065694684898151	-0.08144559449247357	0.00374239158167264	0.1772520919465046	-16.37493616110313	-71.84432235129785	-9.364593292795849	0.1373419678481403	21.42978049839878	-749.6322771249401	58.38626856406149	0.268772107035979	-0.05374255420973439	0.831453665108307	-2.433489820248006	0.09348407184347408	-0.6544751839331271	0.8522373435515359	-3.688219869377751	-3.688219869377747	0.3181499164605113	-0.01361811322159699	-1.704579851214679	-0.4365501370552864	-3.112531280923656e-10	-4.076093375738506e-09	-1.499715488839443e-08	-5.132950386397234e-09	6.110331705910888e-09	-4.384335071289705e-09	-1.221187247011846e-08
1.01	-0.02834031738345874	0.0913548153154129	0.8243636184005401	0.711928889462866	-0.2468270165053443	-0.07241180740474891	-0.4358663100196227	0.9379683778203131	0.9379683778203126	0.04676273047603151	0.1744741061623848	0.4360794538267659	0.08573833743451528	-0.0006418844273364593	0.006820925905038443	0.02003630879699694	-0.06234912446687176	0.002659153956976195	-0.01918104071858575	0.02845354488697271	-0.08892366974347538	-0.08892366974347539	0.003969950404306291	-0.0001186932023736481	-0.0295479341394501	-0.005607543884256674	-0.09690758348400214	0.02019900120896795	0.01618157631946893	-0.4060187875360077	-0.08177053519883518	0.003787038491127362	0.177603045246877	-16.42126080764418	-71.94282843428877	-9.349167923942009	0.1197102231597527	21.37241735650161	-749.6780761293986	58.37483338198811	0.2080668279741822	-0.04759964857790917	0.8218706334155215	-2.366298250737955	0.09112335174043179	-0.6733499907612621	0.9548570214597961	-3.67365444661694	-3.673654446616945	0.3056949263114966	0.004764162886181509	-1.696830772209811	-0.4370246909199522	-1.365587719479305e-10	-4.833763061143712e-09	-2.525979636127337e-08	-8.468348505435207e-09	7.248962328250218e-09	-6.99076344478738e-09	-1.918368629512619e-08
1.02	-0.02833683022693372	0.0914207581494423	0.8246050346414648	0.7111874016013068	-0.2467958598031532	-0.07263696768191912	-0.4355328831611714	0.9368953095328098	0.9368953095328088	0.04681798497551879	0.1744729056723588	0.4356991670526737	0.08566044422318921	0.001263861648558686	0.006378425758473911	0.02823694628758309	-0.08587653758192448	0.003570689940107238	-0.02585086272468874	0.03837477112698247	-0.1256852935164474	-0.1256852935164474	0.007084107170708667	-0.0001186497422400542	-0.04650125901194639	-0.009969779870008556	-0.0972304840394618	0.02023762995985161	0.0161617519036526	-0.4054681065822004	-0.08209547590519681	0.00383168540058206	0.1779539985472496	-16.49182665801709	-72.05264935140941	-9.330815052780325	0.09600536331930183	21.33772436781462	-749.903366416333	58.38117487686419	0.1782265548633425	-0.04078910829281576	0.8194507172975489	-2.347199910481514	0.09166808753545434	-0.6542923330333109	1.023770531976972	-3.682586564801725	-3.682586564801716	0.3219157251302758	-0.01033585283012794	-1.694784704106343	-0.4350071585196084	2.85720856550893e-11	-6.336662698077959e-09	-3.787199884641639e-08	-1.121754084368064e-08	9.907550255428467e-09	-9.800457034804428e-09	-2.922653410587556e-08
1.03	-0.02831605997258532	0.09148262084884845	0.8249281666265211	0.7102122713337337	-0.2467556220670237	-0.07292874931747766	-0.4350965127836738	0.9354548184439415	0.9354548184439415	0.04690449889859404	0.1744717064385924	0.4351496938380655	0.08553903536365756	0.0028606112885195	0.006007046331856327	0.03637999533555741	-0.1091264888262967	0.004476333245395741	-0.03249862475760529	0.04899035934104532	-0.1624023618900498	-0.1624023618900497	0.01022386984542332	-0.0001259147524323044	-0.06337508462645862	-0.01430414390052916	-0.09739430583556162	0.02021526302575689	0.0161235746552805	-0.4047100750112664	-0.08212607529756728	0.003823178442106793	0.1781169724603927	-16.58659787840918	-72.04547603706899	-9.315400711240832	0.07315534428027766	21.21777430760786	-749.7234097504194	58.34560777873298	0.1459623404779845	-0.03336999594249829	0.8103111508482057	-2.310439193845017	0.08992922838266135	-0.6689917358370931	1.094111211391269	-3.664682658292155	-3.664682658292155	0.3107795555518664	0.003365100903126484	-1.680936052549886	-0.431483324710114	1.936053565382986e-10	-7.847166722272711e-09	-5.050817644392947e-08	-1.396075149028533e-08	1.258164795102345e-08	-1.261222475968392e-08	-3.93007189981121e-08
1.04	-0.02828020958745418	0.09154115822676917	0.8253324449325171	0.7090053322612306	-0.24670634454257	-0.07328680329284858	-0.4345512548749813	0.9336474735344069	0.9336474735344077	0.04702256505179834	0.1744702919399274	0.4344320314548271	0.08537451640394234	0.004279887805101949	0.005713361461388908	0.04446621047556384	-0.1322382985678668	0.005378647604968759	-0.03910533068717248	0.06015227736592077	-0.199056057649759	-0.199056057649759	0.01339455319653022	-0.0001617027219484093	-0.08013909273801982	-0.0185917999067229	-0.09755812763166832	0.02019289609166234	0.01608539740690731	-0.4039520434403323	-0.08215667468993773	0.003814671483631839	0.1782799463735359	-16.70554651694805	-72.04960017331473	-9.297124292563819	0.04432083323540691	21.11976773482544	-749.7229892080101	58.3278027321653	0.1427319301876685	-0.02525019706278138	0.8080839357039579	-2.319571609921096	0.09100229839235685	-0.6460811123634385	1.133036494139489	-3.669912042023105	-3.669912042023106	0.3280998604087189	-0.01604044469488414	-1.672821203516137	-0.4256655536542357	3.968367609933813e-10	-8.868096997476247e-09	-5.963616607430729e-08	-1.584094639613319e-08	1.436269682484692e-08	-1.512710335679892e-08	-4.631327736221616e-08
1.05	-0.02823098459459315	0.09159713586426219	0.8258172686465197	0.707567954936436	-0.2466480437677748	-0.07371082144387119	-0.4338918104863079	0.931473974743974	0.9314739747439744	0.04717237613390522	0.1744684142552222	0.4335472953211384	0.0851674047897783	0.005540979862439985	0.005494040833622859	0.05248562331191348	-0.1552135259639632	0.00628249747795983	-0.0457026024130783	0.07181327607789939	-0.2356262022615042	-0.2356262022615042	0.0165607470259056	-0.000213853423165701	-0.09678808863884998	-0.0228179763841659	-0.09752388756990367	0.02008725449133315	0.01602568686742151	-0.403016504119449	-0.08196486787866319	0.003775893443345574	0.1782307028069401	-16.8486061045682	-71.96271867725709	-9.272985674954189	0.01103944870275099	20.99017102014011	-749.3553813170038	58.29632809053415	0.1141780274965771	-0.01848853529332106	0.7969300537908544	-2.282952945550424	0.0902187078246079	-0.6671948372509029	1.194132916095534	-3.647941066764492	-3.647941066764494	0.3098337337146955	0.000187659580494617	-1.657931115850739	-0.4192245052517732	6.012618571225849e-10	-9.873728093023811e-09	-6.865452483071215e-08	-1.769417206008241e-08	1.611583792299004e-08	-1.763270416867128e-08	-5.32301598973161e-08
1.06	-0.02816987264436077	0.09165127718754557	0.826381898508124	0.7059015344094611	-0.2465806760190352	-0.07420094123906222	-0.433113455839241	0.9289352994282205	0.9289352994282206	0.04735364007220842	0.1744660130719878	0.4324966707619448	0.08491840524874733	0.00665727927936276	0.00534609861946539	0.06042743999587859	-0.1780469390039202	0.007192042393835838	-0.05232565952085372	0.08393432904461723	-0.27209136271382	-0.27209136271382	0.01968512443579089	-0.0002664024277567538	-0.1133167778390515	-0.02696938528010656	-0.09748964750813893	0.01998161289100409	0.01596597632793476	-0.4020809647985656	-0.08177306106738867	0.003737115403059376	0.1781814592403443	-17.01571604422585	-71.88710944940254	-9.246099767894806	-0.02807196187496541	20.88139636350246	-749.1673443190546	58.28258140252521	0.1137734021046157	-0.01097451434106898	0.7925647052270481	-2.291208738693228	0.09214130696934407	-0.6512381887373253	1.225047345087329	-3.648915210137201	-3.648915210137198	0.3197365765107001	-0.01612010536959741	-1.648759863390415	-0.4107120373537675	7.008929382784074e-10	-1.097259821266146e-08	-7.768632493994857e-08	-2.066188536661988e-08	1.787561093619289e-08	-1.996726469444256e-08	-5.954786766341251e-08
1.07	-0.02809830361151443	0.09170428620791037	0.8270255147766707	0.7040075469083401	-0.2465042003500025	-0.07475743689491006	-0.4322116916562337	0.9260325927260605	0.9260325927260605	0.04756594586663403	0.1744631327264987	0.4312813768556603	0.08462825571812485	0.007632733353222838	0.005266659933847174	0.06827832035792715	-0.2007193065548476	0.008102651180050938	-0.05898009620198336	0.09648703645279924	-0.3084225352784283	-0.3084225352784283	0.02276881110215806	-0.0003047514458557472	-0.1297201900061377	-0.03104866334389164	-0.09725131352928956	0.01983206679332761	0.01588586475811754	-0.400967189663635	-0.08133811272247043	0.003639009782694824	0.1779139740429073	-17.20677951081123	-71.71459844261381	-9.230573538729809	-0.06244808740861086	20.73713501021216	-748.59654549079	58.2167804533244	0.08586205545524291	-0.004781421578850385	0.7787212069336168	-2.250563481095715	0.09044651377741343	-0.6735391956059855	1.280661773076835	-3.621102073978106	-3.621102073978109	0.3015909947442952	0.00303584393617114	-1.632858690525744	-0.4047734160623049	7.949498697016026e-10	-1.20764278548571e-08	-8.671884001476111e-08	-2.368887993074184e-08	1.96357367108351e-08	-2.229272733265526e-08	-6.583370443115765e-08
1.08	-0.02801769390884377	0.09175683026623767	0.8277471141498858	0.7018877731881492	-0.2464186334232418	-0.07538067547513017	-0.4311823445322661	0.9227673975393832	0.9227673975393831	0.04780886978433218	0.174460014519622	0.4299027034682733	0.08429766586183023	0.008465413244225381	0.005253106211963607	0.076024060929569	-0.223204182817904	0.009010293939458867	-0.06567424439532109	0.1094509172367027	-0.3445890596172549	-0.3445890596172549	0.02580874909030851	-0.0003139747053059697	-0.1459926740595451	-0.0350574504145338	-0.09701297955044687	0.01968252069565131	0.01580575318829935	-0.3998534145287043	-0.08090316437755216	0.003540904162330605	0.1776464888454703	-17.42169916107522	-71.55330551279778	-9.212342468080514	-0.1025881240588064	20.61259445403154	-748.2048653706288	58.16898569622912	0.08521856553310783	0.002202478405861873	0.771536747145705	-2.253710481119025	0.09154810160791356	-0.6591804911789446	1.307282020231628	-3.615985564980845	-3.615985564980845	0.3109868408673995	-0.01029495363985145	-1.622574240654673	-0.3966138387251825	9.277007903577656e-10	-1.338395518934994e-08	-9.726104924840504e-08	-2.693532248449799e-08	2.175500744359829e-08	-2.488771314452218e-08	-7.302881504405118e-08
